<svg width="400" height="400" viewBox="0 0 789 335" fill="none" xmlns="http://www.w3.org/2000/svg">
<path d="M755.052 94.9223C755.019 92.0709 754.905 89.5205 754.739 87.2626C743.675 77.8003 733.391 70.3912 724.024 64.6351C726.534 71.3748 734.654 114.358 739.25 152.037L768.014 205.727C769.977 205.614 771.92 205.464 773.836 205.272C771.815 158.911 764.498 124.606 758.955 106.168C757.486 101.281 756.141 97.509 755.052 94.9223Z" fill="#B7D3E3"/>
<path d="M668.056 46.6848C668.817 51.4133 669.645 56.5501 670.523 61.9824C679.408 62.2684 697.486 63.259 698.714 64.9339C700.25 67.0275 713.201 76.0607 712.967 120.226C711.168 120.354 708.352 120.171 705.4 119.276C701.744 118.166 697.881 115.962 695.491 111.897C693.405 100.941 689.933 79.9519 691.451 77.3436C688.645 77.5522 678.767 77.4252 673.007 77.3076C680.576 123.894 690.291 182.686 693.333 197.464C699.457 199.097 709.526 201.289 721.368 203.042L734.927 152.088C730.55 115.508 723.668 79.7515 719.703 62.0579C693.733 47.0389 675.445 45.0382 668.056 46.6848Z" fill="#9FD2EF"/>
<path d="M695.491 111.897C697.881 115.962 701.744 118.166 705.4 119.276C704.973 83.118 696.23 76.0825 691.912 77.0845C692.464 77.2017 692.231 77.2856 691.451 77.3436C689.933 79.9519 693.405 100.941 695.491 111.897Z" fill="#9FD2EF"/>
<path d="M768.808 114.588C768.345 126.544 770.327 136.621 771.376 140.165C773.817 146.501 776.64 149.125 779.047 149.912C779.972 125.904 776.879 115.597 774.843 113.805L768.808 114.588Z" fill="#9FD2EF"/>
<path d="M646.127 246.191C646.205 252.812 645.045 259.096 642.909 264.714C642.185 266.617 641.349 268.444 640.412 270.181C634.26 281.583 623.723 289.152 611.675 289.294C597.305 289.464 584.836 279.021 579.284 263.947C577.377 258.769 576.286 253.045 576.215 247.017C575.936 223.44 591.361 204.142 610.667 203.914C629.973 203.686 645.849 222.614 646.127 246.191Z" fill="black"/>
<path d="M95.1981 231.171C95.4765 254.748 80.0517 274.045 60.7459 274.273C41.4401 274.501 25.564 255.573 25.2856 231.996C95.1981 231.171 60.7459 274.273 59.7379 188.893C79.0437 188.665 94.9198 207.594 95.1981 231.171Z" fill="black"/>
<path d="M17.0508 108.959L648.534 38.4739C652.042 39.5273 665.964 70.5755 685.112 192.087C672.606 185.667 638.866 164.17 603.963 129.549C598.827 122.311 576.645 105.787 529.001 97.5911C513.038 94.4953 462.49 90.494 388.01 99.2557C381.424 100.793 96.6886 122.47 36.9886 119.671C33.4973 120.078 24.6219 118.504 17.0508 108.959Z" fill="#007BED"/>
<path d="M738.815 200.212C738.462 188.748 737.542 176.492 736.268 164.114L726.037 203.697C737.747 205.247 750.817 206.279 763.355 205.926L740.61 164.063C742.112 178.608 742.879 191.554 742.311 200.17L738.815 200.212Z" fill="#000955"/>
<path d="M698.714 64.9339C697.486 63.259 679.408 62.2684 670.523 61.9824C671.315 66.8783 672.147 72.0141 673.007 77.3076C678.767 77.4252 688.645 77.5522 691.451 77.3436C691.572 77.1358 691.724 77.0447 691.912 77.0845C696.23 76.0825 704.973 83.118 705.4 119.276C708.352 120.171 711.168 120.354 712.967 120.226C713.201 76.0607 700.25 67.0275 698.714 64.9339Z" fill="black"/>
<path d="M776.941 99.5542C775.685 95.5856 761.825 94.8126 755.052 94.9223C756.141 97.509 757.486 101.281 758.955 106.168C774.203 108.265 776.149 111.893 774.843 113.805C776.879 115.597 779.972 125.904 779.047 149.912C780.943 150.532 782.582 150.012 783.572 149.268C788.037 117.917 781.012 103.063 776.941 99.5542Z" fill="black"/>
<path d="M638.663 8.71501C638.663 8.71501 144.013 70.6641 22.6837 92.5322L16.9869 103.547C143.792 84.8987 638.872 26.4478 638.883 27.3235C638.896 28.4181 642.355 25.2816 656.425 32.5902C663.327 39.0385 665.889 47.2064 670.38 61.5247L670.523 61.9824C669.645 56.5501 668.817 51.4133 668.056 46.6848C667.688 44.3999 667.337 42.2102 667.003 40.1287C677.674 38.543 710.018 44.4378 754.022 80.7024C753.493 77.2211 752.879 75.0669 752.476 74.1521C729.67 37.6372 671.759 15.2578 645.654 8.63247L638.663 8.71501Z" fill="#0077BE"/>
<path d="M705.285 276.915C734.684 276.716 759.884 269.973 771.051 265.517L772.326 258.645C749.321 266.009 733.949 269.62 704.43 271.233L705.285 276.915Z" fill="#000955"/>
<path fill-rule="evenodd" clip-rule="evenodd" d="M772.326 258.645L771.051 265.517C771.521 263.176 771.944 260.884 772.326 258.645ZM774.544 241.862L773.804 248.642C774.096 246.309 774.34 244.048 774.544 241.862Z" fill="black"/>
<path d="M774.544 241.862C773.18 242.175 771.835 242.473 770.508 242.757C745.37 248.13 726.312 248.315 700.638 241.914L700.633 248.692C701.121 259.894 707.96 263.482 763.329 250.793C765.536 250.351 767.819 249.886 770.179 249.397C771.367 249.151 772.576 248.9 773.804 248.642L774.544 241.862Z" fill="#000955"/>
<path d="M773.481 251.11C773.595 250.279 773.702 249.456 773.804 248.642C772.576 248.9 771.367 249.151 770.179 249.397C772.489 249.284 773.093 249.41 773.481 251.11Z" fill="#0077EE"/>
<path d="M774.636 240.838C774.669 240.466 774.701 240.096 774.731 239.729L774.847 237.979C774.239 240.62 773.382 241.733 770.508 242.757C771.835 242.473 773.18 242.175 774.544 241.862C774.576 241.519 774.606 241.178 774.636 240.838Z" fill="#000955"/>
<path d="M525.167 167.701C523.468 181.735 508.861 234.31 501.77 258.843C527.623 259.868 554.416 261.766 579.284 263.947C577.377 258.769 576.286 253.045 576.215 247.017C575.936 223.44 591.361 204.142 610.667 203.914C629.973 203.686 645.849 222.614 646.127 246.191C646.205 252.812 645.045 259.096 642.909 264.714C642.185 266.617 641.349 268.444 640.412 270.181C654.078 271.772 665.386 273.23 673.264 274.335C684.171 276.251 694.985 276.985 705.285 276.915L704.43 271.233C733.949 269.62 749.321 266.009 772.326 258.645L772.33 258.62L772.398 258.22L772.412 258.131C772.816 255.729 773.171 253.387 773.481 251.11C773.093 249.41 772.489 249.284 770.179 249.397C767.819 249.886 765.536 250.351 763.329 250.793C707.96 263.482 701.121 259.894 700.633 248.692L700.638 241.914C726.312 248.315 745.37 248.13 770.508 242.757C773.382 241.733 774.239 240.62 774.847 237.979L775.156 233.327C775.849 219.484 774.824 209.66 773.836 205.272C751.748 215.605 716.949 210.525 694.416 204.666C689.519 203.393 685.202 202.082 681.72 200.886C675.195 200.963 613.983 155.705 584.193 133.067C571.039 124.464 552.24 124.686 544.485 125.872C560.394 130.939 582.41 146.59 591.429 153.782C624.448 186.673 667.875 212.727 685.461 221.642C659.391 224.577 601.122 185.051 575.246 164.921C549.124 163.477 530.976 166.173 525.167 167.701Z" fill="#0077EE"/>
<path d="M27.3754 116.888L657.92 68.5498L658.022 68.542L658.113 68.4946C658.209 68.4442 658.316 68.4283 658.507 68.552C658.728 68.6946 659.009 68.9978 659.338 69.5266C659.99 70.5752 660.723 72.326 661.536 74.8077C663.158 79.7576 665.058 87.4714 667.29 97.9121C671.723 118.643 677.453 150.05 684.918 191.727C681.783 190.473 676.982 187.79 671.397 184.36C665.32 180.628 658.357 176.039 651.688 171.518C640.237 163.754 629.666 156.2 625.946 153.542C625.333 153.104 624.906 152.799 624.692 152.648C624.382 152.43 623.668 151.787 622.534 150.769L622.114 150.391C620.755 149.171 618.923 147.535 616.66 145.615C612.134 141.775 605.881 136.795 598.224 131.706C582.915 121.531 561.964 110.903 537.939 108.087C521.86 105.963 471.071 103.235 396.272 109.256L396.252 109.258L396.233 109.261C395.848 109.322 394.375 109.441 391.889 109.608C389.419 109.775 385.981 109.988 381.698 110.241C373.133 110.746 361.19 111.407 346.856 112.166C318.188 113.683 279.96 115.586 240.066 117.398C160.264 121.021 73.8293 124.272 43.8816 123.32L43.8538 123.32L43.8261 123.322C40.6062 123.578 34.4895 122.647 27.3754 116.888Z" fill="#000955" stroke="black"/>
<path d="M478.384 195.416L442.439 195.84L443.443 280.873C443.474 291.774 445.1 300.805 448.321 307.965C451.591 315.124 456.236 320.381 462.255 323.734C468.322 327.017 475.566 328.329 483.988 327.67C488.297 327.34 491.989 326.633 495.064 325.548L595.032 306.233L633.17 272.972L606.207 292.915C540.047 320.442 483.093 310.526 479.552 294.411C478.843 292.462 479.358 277.933 479.321 274.788L478.384 195.416Z" fill="url(#paint0_linear_6_31)"/>
<path d="M505.766 195.397L514.099 164.397L478.018 164.422L478.384 195.416L505.766 195.397Z" fill="#007BED"/>
<path d="M442.439 195.84L478.384 195.416L478.018 164.422L442.073 164.846L442.439 195.84Z" fill="#007BED"/>
<path d="M424.199 164.859L424.177 195.227L442.439 195.84L442.073 164.846L424.199 164.859Z" fill="#007BED"/>
<path d="M477.562 125.851L441.618 126.275L442.073 164.846L478.018 164.422L477.562 125.851Z" fill="#007BED"/>
<path d="M634.022 217.187C639.773 229.272 645.515 260.596 638.454 272.618C631.394 284.639 610.636 298.549 592.653 307.291C574.67 316.032 552.52 322.278 528.426 325.4C504.332 328.523 494.373 330.094 470.614 326.763L477.313 315.306C497.102 318.08 502.852 316.491 522.919 313.89C542.987 311.29 585.958 301.681 600.936 294.4C615.914 287.119 612.967 285.753 618.848 275.74C624.728 265.728 628.656 262.938 623.866 252.873L634.022 217.187Z" fill="black"/>
<path d="M6.47455 108.673C20.1379 125.548 28.3388 130.462 43.7157 132.944C55.4404 132.936 64.6852 135.604 71.4501 140.948C78.336 146.179 81.7757 153.346 81.769 162.45C81.7614 172.806 76.9811 180.776 67.428 186.359C80.1162 191.13 86.4558 199.547 86.447 211.61C86.442 218.439 84.6244 224.529 80.9943 229.88C77.3643 235.117 72.2846 239.218 65.7553 242.181C59.3469 245.145 52.0934 246.629 43.995 246.635L3.20044 246.663L6.47455 108.673ZM37.5173 179.21C43.5609 179.206 48.2155 177.894 51.481 175.274C54.8673 172.654 56.5622 169.011 56.5656 164.345C56.5718 155.924 51.0148 151.717 39.8945 151.725L28.472 151.733L28.4518 179.216L37.5173 179.21ZM40.0201 227.689C46.5472 227.684 51.6249 226.258 55.2532 223.411C59.0023 220.563 60.8786 216.749 60.8821 211.97C60.8853 207.645 59.3164 204.289 56.1755 201.901C53.0345 199.513 48.5027 198.322 42.5799 198.326L28.4378 198.335L28.4163 227.697L40.0201 227.689Z" fill="#007BED"/>
<path d="M136.522 248.961C126.61 248.967 118.816 246.128 113.139 240.441C107.462 234.755 104.628 226.962 104.635 217.061L104.678 158.679L130.242 158.661L130.202 213.117C130.199 217.783 131.405 221.424 133.82 224.039C136.236 226.541 139.499 227.791 143.608 227.788C147.718 227.785 151.647 226.531 155.396 224.024C159.266 221.518 162.472 218.159 165.013 213.946L165.054 158.637L190.618 158.62L190.556 242.778L164.972 269.824L164.998 234.943C161.489 239.384 157.437 242.858 152.842 245.365C148.368 247.758 142.928 248.956 136.522 248.961Z" fill="#007BED"/>
<path d="M241.07 249.059C235.148 249.063 229.407 248.498 223.847 247.364C218.409 246.23 213.756 244.697 209.89 242.765L212.262 222.278C216.37 224.665 220.901 226.597 225.856 228.073C230.811 229.549 235.464 230.285 239.815 230.282C243.925 230.279 247.37 229.594 250.151 228.227C252.932 226.745 254.324 224.639 254.326 221.908C254.327 219.745 253.362 218.096 251.429 216.959C249.495 215.709 245.81 214.175 240.372 212.358L235.478 210.654C230.282 208.837 226.052 207.133 222.79 205.542C219.528 203.837 216.568 201.278 213.912 197.866C211.255 194.454 209.929 189.959 209.933 184.383C209.939 175.506 213.45 168.619 220.464 163.72C227.599 158.708 236.848 156.198 248.21 156.19C257.154 156.184 266.581 157.827 276.49 161.121L273.03 181.437C269.526 179.505 265.539 177.971 261.067 176.836C256.717 175.588 252.608 174.965 248.74 174.967C244.751 174.97 241.547 175.598 239.129 176.852C236.831 178.105 235.682 179.927 235.68 182.317C235.678 184.593 236.644 186.299 238.577 187.436C240.51 188.573 243.773 189.879 248.365 191.355C251.99 192.605 254.105 193.343 254.709 193.57C259.784 195.501 264.014 197.376 267.397 199.195C270.78 201.013 273.739 203.742 276.275 207.382C278.811 210.909 280.076 215.46 280.072 221.036C280.066 230.368 276.495 237.37 269.36 242.041C262.225 246.712 252.795 249.051 241.07 249.059Z" fill="#007BED"/>
<path d="M325.174 249.001C319.251 249.005 313.51 248.44 307.951 247.306C302.512 246.172 297.86 244.638 293.993 242.706L296.365 222.22C300.473 224.607 305.004 226.539 309.959 228.015C314.914 229.491 319.567 230.227 323.918 230.224C328.028 230.221 331.473 229.536 334.254 228.169C337.036 226.687 338.427 224.581 338.429 221.85C338.431 219.687 337.465 218.038 335.532 216.901C333.599 215.651 329.913 214.117 324.475 212.3L319.581 210.596C314.385 208.779 310.156 207.075 306.893 205.484C303.631 203.779 300.672 201.22 298.015 197.808C295.358 194.396 294.032 189.901 294.036 184.325C294.043 175.448 297.553 168.56 304.567 163.662C311.702 158.65 320.951 156.14 332.313 156.132C341.257 156.126 350.684 157.769 360.593 161.063L357.134 181.379C353.63 179.447 349.642 177.913 345.171 176.778C340.82 175.53 336.711 174.906 332.843 174.909C328.854 174.912 325.651 175.54 323.232 176.794C320.935 178.047 319.785 179.869 319.783 182.259C319.782 184.535 320.747 186.241 322.681 187.378C324.614 188.514 327.876 189.821 332.468 191.297C336.094 192.547 338.208 193.285 338.813 193.512C343.888 195.443 348.117 197.318 351.5 199.137C354.883 200.955 357.843 203.684 360.378 207.324C362.914 210.851 364.18 215.402 364.176 220.978C364.169 230.31 360.598 237.312 353.463 241.983C346.328 246.653 336.898 248.993 325.174 249.001Z" fill="#007BED"/>
<path d="M385.59 132.708L411.879 132.69L411.796 246.381L385.506 246.399L385.59 132.708Z" fill="#007BED"/>
<path d="M190.556 242.778L164.972 269.824L433.196 258.97L433.2 253.28L190.55 251.313L190.556 242.778Z" fill="#007BED"/>
<path d="M94.4281 229.122C94.7065 252.699 79.2817 271.996 59.9758 272.224C40.67 272.452 24.7939 253.524 24.5156 229.947C94.4281 229.122 59.9758 272.224 58.9678 186.844C78.2736 186.617 94.1497 205.545 94.4281 229.122Z" fill="black"/>
<path d="M6.08869 109.674C19.752 126.549 27.9529 131.464 43.3299 133.946C55.0545 133.938 64.2993 136.606 71.0643 141.95C77.9502 147.18 81.3898 154.348 81.3831 163.452C81.3755 173.808 76.5952 181.778 67.0422 187.361C79.7303 192.132 86.07 200.549 86.0611 212.612C86.0561 219.44 84.2385 225.53 80.6084 230.882C76.9784 236.119 71.8988 240.219 65.3695 243.183C58.961 246.146 51.7076 247.631 43.6091 247.636L2.81457 247.664L6.08869 109.674ZM37.1314 180.212C43.1751 180.208 47.8296 178.896 51.0951 176.276C54.4815 173.656 56.1764 170.013 56.1798 165.347C56.186 156.926 50.6289 152.719 39.5086 152.726L28.0861 152.734L28.066 180.218L37.1314 180.212ZM39.6342 228.691C46.1613 228.686 51.239 227.26 54.8673 224.412C58.6164 221.565 60.4928 217.751 60.4963 212.971C60.4994 208.647 58.9306 205.291 55.7896 202.903C52.6487 200.515 48.1168 199.323 42.1941 199.327L28.052 199.337L28.0304 228.699L39.6342 228.691Z" fill="url(#paint1_linear_6_31)"/>
<defs>
<linearGradient id="paint0_linear_6_31" x1="412.343" y1="200.186" x2="469.792" y2="336.38" gradientUnits="userSpaceOnUse">
<stop stop-color="#007BED"/>
<stop offset="1"/>
</linearGradient>
<linearGradient id="paint1_linear_6_31" x1="20.7688" y1="189.749" x2="73.3142" y2="244.802" gradientUnits="userSpaceOnUse">
<stop stop-color="#007BED"/>
<stop offset="1"/>
</linearGradient>
</defs>
</svg>
